<svg width="263" height="77" viewBox="0 0 263 77" fill="none" xmlns="http://www.w3.org/2000/svg">
    <g clip-path="url(#clip0_2793_13124)">
        <path d="M260.26 62.3885L257.639 71.9351L258.411 72.1468L261.031 62.6003L260.26 62.3885Z" fill="#AFE0D6"/>
        <path d="M249 73.3001L248.2 73.1001L250.6 64.1001L251.4 64.3001L249 73.3001Z" fill="#AFE0D6"/>
        <path d="M248.98 57.9734L248.235 58.2651L250.642 64.4104L251.387 64.1186L248.98 57.9734Z" fill="#AFE0D6"/>
        <path d="M260.582 62.1976L250.92 63.8401L251.054 64.6288L260.716 62.9863L260.582 62.1976Z" fill="#AFE0D6"/>
        <path d="M239.873 57.0675L239.816 57.8655L248.495 58.4799L248.551 57.6819L239.873 57.0675Z" fill="#AFE0D6"/>
        <path d="M254.677 53.3927L248.344 57.7725L248.799 58.4304L255.132 54.0506L254.677 53.3927Z" fill="#AFE0D6"/>
        <path d="M242.494 64.6599L237.436 71.3665L238.075 71.8481L243.132 65.1416L242.494 64.6599Z" fill="#AFE0D6"/>
        <path d="M237.805 71.2079L237.686 71.999L248.465 73.6155L248.584 72.8244L237.805 71.2079Z" fill="#AFE0D6"/>
        <path d="M258 74.1001C259.105 74.1001 260 73.2047 260 72.1001C260 70.9955 259.105 70.1001 258 70.1001C256.895 70.1001 256 70.9955 256 72.1001C256 73.2047 256.895 74.1001 258 74.1001Z" fill="#27B6A3"/>
        <path d="M239.9 61.1001C241.888 61.1001 243.5 59.4884 243.5 57.5001C243.5 55.5119 241.888 53.9001 239.9 53.9001C237.912 53.9001 236.3 55.5119 236.3 57.5001C236.3 59.4884 237.912 61.1001 239.9 61.1001Z" fill="#AFE0D6"/>
        <path d="M237.8 75.2C239.788 75.2 241.4 73.5882 241.4 71.6C241.4 69.6118 239.788 68 237.8 68C235.812 68 234.2 69.6118 234.2 71.6C234.2 73.5882 235.812 75.2 237.8 75.2Z" fill="#AFE0D6"/>
        <path d="M257.747 54.4009C258.115 52.8422 257.15 51.2803 255.591 50.9123C254.033 50.5442 252.471 51.5094 252.103 53.0681C251.734 54.6268 252.7 56.1887 254.258 56.5568C255.817 56.9249 257.379 55.9596 257.747 54.4009Z" fill="#6FD8BF"/>
        <path d="M251 67.3001C252.712 67.3001 254.1 65.9122 254.1 64.2001C254.1 62.488 252.712 61.1001 251 61.1001C249.288 61.1001 247.9 62.488 247.9 64.2001C247.9 65.9122 249.288 67.3001 251 67.3001Z" fill="#6FD8BF"/>
        <path d="M248.6 76.3001C250.312 76.3001 251.7 74.9122 251.7 73.2001C251.7 71.488 250.312 70.1001 248.6 70.1001C246.888 70.1001 245.5 71.488 245.5 73.2001C245.5 74.9122 246.888 76.3001 248.6 76.3001Z" fill="#6FD8BF"/>
        <path d="M260.6 64.5C261.705 64.5 262.6 63.6046 262.6 62.5C262.6 61.3954 261.705 60.5 260.6 60.5C259.495 60.5 258.6 61.3954 258.6 62.5C258.6 63.6046 259.495 64.5 260.6 64.5Z" fill="#27B6A3"/>
        <path d="M242.9 66.9001C244.005 66.9001 244.9 66.0047 244.9 64.9001C244.9 63.7956 244.005 62.9001 242.9 62.9001C241.795 62.9001 240.9 63.7956 240.9 64.9001C240.9 66.0047 241.795 66.9001 242.9 66.9001Z" fill="#27B6A3"/>
        <path d="M7.2 27.5H0V34.7H7.2V27.5Z" fill="#97D5CC"/>
        <path d="M16.2 18.5H9V25.7H16.2V18.5Z" fill="#97D5CC"/>
        <path d="M25.2 9.5H18V16.7H25.2V9.5Z" fill="#97D5CC"/>
        <path d="M16.2 36.5H9V43.7H16.2V36.5Z" fill="#178A7C"/>
        <path d="M25.2 36.5H18V43.7H25.2V36.5Z" fill="#178A7C"/>
        <path d="M34.2 36.5H27V43.7H34.2V36.5Z" fill="#178A7C"/>
        <path d="M25.2 27.5H18V34.7H25.2V27.5Z" fill="#178A7C"/>
        <path d="M34.2 27.5H27V34.7H34.2V27.5Z" fill="#178A7C"/>
        <path d="M34.2 18.5H27V25.7H34.2V18.5Z" fill="#178A7C"/>
        <path d="M43.2 18.5H36V25.7H43.2V18.5Z" fill="#178A7C"/>
        <path d="M43.2 36.5H36V43.7H43.2V36.5Z" fill="#178A7C"/>
        <path d="M43.2 27.5H36V34.7H43.2V27.5Z" fill="#178A7C"/>
        <path d="M43.2 9.5H36V16.7H43.2V9.5Z" fill="#178A7C"/>
        <path d="M7.2 36.5H0V43.7H7.2V36.5Z" fill="#27B6A3"/>
        <path d="M16.2 27.5H9V34.7H16.2V27.5Z" fill="#27B6A3"/>
        <path d="M25.2 18.5H18V25.7H25.2V18.5Z" fill="#27B6A3"/>
        <path d="M43.2 0.5H36V7.7H43.2V0.5Z" fill="#27B6A3"/>
        <path d="M73.2 10.1C73.2 11.6 72.9 13 72.4 14.3C71.9 15.6 71.1 16.6 70.2 17.5C69.3 18.4 68.1 19.1 66.9 19.6C65.6 20.1 64.2 20.3 62.7 20.3C61.2 20.3 59.8 20.1 58.5 19.6C57.2 19.1 56.1 18.4 55.2 17.5C54.3 16.6 53.5 15.5 53 14.3C52.5 13.1 52.2 11.7 52.2 10.1C52.2 8.5 52.5 7.2 53 5.9C53.5 4.7 54.3 3.6 55.2 2.7C56.1 1.8 57.2 1.2 58.5 0.7C59.8 0.2 61.2 0 62.7 0C64.2 0 65.6 0.2 66.9 0.7C68.2 1.2 69.3 1.8 70.2 2.7C71.1 3.6 71.9 4.6 72.4 5.9C72.9 7.2 73.2 8.5 73.2 10.1ZM68.2 10.1C68.2 9.3 68.1 8.5 67.8 7.8C67.5 7.1 67.1 6.5 66.7 5.9C66.2 5.4 65.6 5 65 4.7C64.3 4.4 63.6 4.3 62.8 4.3C62 4.3 61.2 4.5 60.6 4.7C59.9 5 59.4 5.4 58.9 5.9C58.4 6.4 58 7 57.8 7.8C57.5 8.5 57.4 9.3 57.4 10.1C57.4 10.9 57.5 11.8 57.8 12.5C58.1 13.2 58.5 13.9 58.9 14.4C59.4 14.9 60 15.3 60.6 15.6C61.2 15.9 62 16 62.8 16C63.6 16 64.4 15.9 65 15.6C65.6 15.3 66.2 14.9 66.7 14.4C67.2 13.9 67.6 13.2 67.8 12.5C68 11.8 68.2 10.9 68.2 10.1Z" fill="#231F20"/>
        <path d="M90.9 6.4C90.9 7.5 90.7 8.5 90.3 9.2C89.9 10 89.3 10.6 88.6 11.1C87.9 11.6 87.1 11.9 86.2 12.1C85.3 12.3 84.3 12.4 83.3 12.4H81V19.7H76.3V0.5H83.4C84.5 0.5 85.4 0.6 86.3 0.8C87.2 1 88 1.3 88.7 1.8C89.4 2.3 89.9 2.9 90.3 3.6C90.7 4.3 90.9 5.3 90.9 6.4ZM86.3 6.5C86.3 6.1 86.2 5.7 86 5.4C85.8 5.1 85.6 4.9 85.3 4.7C85 4.5 84.6 4.4 84.2 4.4C83.8 4.4 83.4 4.3 83 4.3H81V8.9H83C83.4 8.9 83.8 8.9 84.2 8.8C84.6 8.7 85 8.6 85.3 8.4C85.6 8.2 85.9 8 86.1 7.7C86.3 7.4 86.3 6.9 86.3 6.5Z" fill="#231F20"/>
        <path d="M108.3 6.4C108.3 7.5 108.1 8.5 107.7 9.2C107.3 10 106.7 10.6 106 11.1C105.3 11.6 104.5 11.9 103.6 12.1C102.7 12.3 101.7 12.4 100.7 12.4H98.4V19.7H93.7V0.5H100.8C101.9 0.5 102.8 0.6 103.7 0.8C104.6 1 105.4 1.3 106.1 1.8C106.8 2.3 107.3 2.9 107.7 3.6C108.1 4.3 108.3 5.3 108.3 6.4ZM103.6 6.5C103.6 6.1 103.5 5.7 103.3 5.4C103.1 5.1 102.9 4.9 102.6 4.7C102.3 4.5 101.9 4.4 101.5 4.4C101.1 4.4 100.7 4.3 100.3 4.3H98.3V8.9H100.3C100.7 8.9 101.1 8.9 101.5 8.8C101.9 8.7 102.3 8.6 102.6 8.4C102.9 8.2 103.2 8 103.4 7.7C103.6 7.4 103.6 6.9 103.6 6.5Z" fill="#231F20"/>
        <path d="M131 10.1C131 11.6 130.7 13 130.2 14.3C129.7 15.6 128.9 16.6 128 17.5C127.1 18.4 125.9 19.1 124.7 19.6C123.4 20.1 122 20.3 120.5 20.3C119 20.3 117.6 20.1 116.3 19.6C115 19.1 113.9 18.4 113 17.5C112.1 16.6 111.3 15.5 110.8 14.3C110.3 13.1 110 11.7 110 10.1C110 8.5 110.3 7.2 110.8 5.9C111.3 4.7 112.1 3.6 113 2.7C113.9 1.8 115 1.2 116.3 0.7C117.6 0.2 119 0 120.5 0C122 0 123.4 0.2 124.7 0.7C126 1.2 127.1 1.8 128 2.7C128.9 3.6 129.7 4.6 130.2 5.9C130.7 7.2 131 8.5 131 10.1ZM126.1 10.1C126.1 9.3 126 8.5 125.7 7.8C125.4 7.1 125 6.5 124.6 5.9C124.1 5.4 123.5 5 122.9 4.7C122.2 4.4 121.5 4.3 120.7 4.3C119.9 4.3 119.1 4.5 118.5 4.7C117.8 5 117.3 5.4 116.8 5.9C116.3 6.4 115.9 7 115.7 7.8C115.4 8.5 115.3 9.3 115.3 10.1C115.3 10.9 115.4 11.8 115.7 12.5C116 13.2 116.4 13.9 116.8 14.4C117.3 14.9 117.9 15.3 118.5 15.6C119.2 15.9 119.9 16 120.7 16C121.5 16 122.3 15.9 122.9 15.6C123.6 15.3 124.1 14.9 124.6 14.4C125.1 13.9 125.5 13.2 125.7 12.5C125.9 11.8 126.1 10.9 126.1 10.1Z" fill="#231F20"/>
        <path d="M144.2 19.8L140 12.2H138.4V19.8H133.8V0.5H141.2C142.1 0.5 143 0.6 143.9 0.8C144.8 1 145.6 1.3 146.3 1.8C147 2.3 147.6 2.8 148 3.6C148.4 4.3 148.6 5.3 148.6 6.4C148.6 7.7 148.2 8.8 147.5 9.7C146.8 10.6 145.8 11.2 144.6 11.6L149.6 19.8H144.2ZM144 6.4C144 6 143.9 5.6 143.7 5.3C143.5 5 143.3 4.8 143 4.6C142.7 4.4 142.4 4.3 142 4.3C141.6 4.2 141.3 4.2 140.9 4.2H138.4V8.7H140.6C141 8.7 141.4 8.7 141.8 8.6C142.2 8.5 142.6 8.4 142.9 8.3C143.2 8.2 143.5 7.9 143.7 7.6C143.9 7.3 144 6.9 144 6.4Z" fill="#231F20"/>
        <path d="M160.5 4.5V19.8H155.9V4.5H150.5V0.5H166V4.5H160.5Z" fill="#231F20"/>
        <path d="M184.8 15.7C184.4 16.6 183.9 17.5 183.1 18.1C182.4 18.8 181.5 19.3 180.5 19.7C179.5 20.1 178.3 20.3 177.1 20.3C175.9 20.3 174.7 20.1 173.7 19.7C172.7 19.3 171.8 18.8 171.1 18.1C170.4 17.4 169.9 16.6 169.5 15.7C169.1 14.8 168.9 13.7 168.9 12.5V0.5H173.5V12.1C173.5 12.6 173.6 13.1 173.7 13.6C173.8 14.1 174 14.5 174.3 14.9C174.6 15.3 174.9 15.6 175.4 15.8C175.9 16 176.4 16.1 177.1 16.1C177.8 16.1 178.3 16 178.8 15.8C179.3 15.6 179.6 15.3 179.9 14.9C180.2 14.5 180.4 14.1 180.5 13.6C180.6 13.1 180.7 12.6 180.7 12.1V0.5H185.3V12.5C185.4 13.7 185.2 14.7 184.8 15.7Z" fill="#231F20"/>
        <path d="M201.3 19.8L193.5 7.2H193.4L193.5 19.8H189V0.5H194.3L202 13.1H202.1L202 0.5H206.5V19.8H201.3Z" fill="#231F20"/>
        <path d="M210.5 19.8V0.5H215.2V19.8H210.5Z" fill="#231F20"/>
        <path d="M228.1 4.5V19.8H223.5V4.5H218V0.5H233.5V4.5H228.1Z" fill="#231F20"/>
        <path d="M246.9 11.6V19.8H242.3V11.6L235.1 0.5H240.7L244.8 7.6L248.9 0.5H254.3L246.9 11.6Z" fill="#231F20"/>
        <path d="M54 43.7V24.4H58.7V43.7H54Z" fill="#929497"/>
        <path d="M75.6 43.7L67.8 31.1H67.7L67.8 43.7H63.3V24.4H68.6L76.3 37H76.4L76.3 24.4H80.8V43.7H75.6Z" fill="#929497"/>
        <path d="M95.7 29.4C95.3 28.9 94.8 28.5 94.1 28.2C93.4 27.9 92.8 27.7 92.2 27.7C91.9 27.7 91.6 27.7 91.3 27.8C91 27.9 90.7 28 90.4 28.1C90.2 28.2 89.9 28.5 89.8 28.7C89.7 28.9 89.5 29.3 89.5 29.6C89.5 29.9 89.6 30.2 89.7 30.4C89.8 30.6 90 30.8 90.3 31C90.6 31.2 90.9 31.3 91.2 31.5C91.5 31.7 92 31.8 92.4 31.9C93.1 32.1 93.7 32.4 94.5 32.6C95.2 32.9 95.8 33.2 96.4 33.6C97 34 97.5 34.6 97.8 35.2C98.2 35.9 98.4 36.7 98.4 37.6C98.4 38.7 98.2 39.7 97.8 40.5C97.4 41.3 96.8 42 96.1 42.5C95.4 43 94.6 43.4 93.7 43.7C92.8 44 91.9 44.1 90.9 44.1C89.5 44.1 88.2 43.9 86.9 43.4C85.6 42.9 84.5 42.2 83.7 41.3L86.8 38.2C87.3 38.8 87.9 39.3 88.7 39.7C89.5 40.1 90.2 40.3 91 40.3C91.3 40.3 91.7 40.3 92 40.2C92.3 40.1 92.6 40 92.9 39.9C93.2 39.8 93.3 39.5 93.5 39.2C93.7 38.9 93.7 38.6 93.7 38.2C93.7 37.8 93.6 37.5 93.4 37.3C93.2 37.1 93 36.8 92.6 36.6C92.2 36.4 91.8 36.2 91.4 36C91 35.8 90.3 35.6 89.7 35.4C89.1 35.2 88.5 35 87.9 34.7C87.3 34.4 86.8 34.1 86.3 33.7C85.8 33.3 85.5 32.8 85.2 32.2C84.9 31.6 84.8 30.8 84.8 30C84.8 28.9 85 28 85.5 27.2C86 26.4 86.5 25.8 87.2 25.3C87.9 24.8 88.7 24.4 89.6 24.2C90.5 24 91.4 23.9 92.3 23.9C93.4 23.9 94.5 24.1 95.6 24.5C96.7 24.9 97.7 25.5 98.6 26.3L95.7 29.4Z" fill="#929497"/>
        <path d="M102.4 43.7V24.4H107.1V43.7H102.4Z" fill="#929497"/>
        <path d="M125.5 43.7C124.2 44 122.9 44.2 121.4 44.2C119.9 44.2 118.4 44 117.1 43.5C115.8 43 114.7 42.3 113.8 41.4C112.9 40.5 112.1 39.4 111.6 38.2C111.1 37 110.8 35.6 110.8 34C110.8 32.4 111.1 31.1 111.6 29.8C112.1 28.6 112.9 27.5 113.8 26.6C114.7 25.7 115.9 25 117.1 24.6C118.4 24.1 119.7 23.9 121.2 23.9C122.7 23.9 124.1 24.1 125.4 24.6C126.7 25.1 127.8 25.7 128.6 26.5L125.7 29.9C125.3 29.4 124.6 28.9 123.9 28.6C123.1 28.3 122.3 28.1 121.4 28.1C120.6 28.1 119.8 28.2 119.1 28.6C118.4 28.9 117.8 29.3 117.3 29.8C116.8 30.3 116.4 31 116.1 31.7C115.8 32.4 115.7 33.2 115.7 34.1C115.7 35 115.8 35.8 116.1 36.6C116.3 37.4 116.7 38 117.2 38.5C117.7 39 118.3 39.5 119 39.7C119.7 40 120.6 40.2 121.5 40.2C122.1 40.2 122.6 40.2 123.1 40.1C123.6 40 124 39.9 124.5 39.7V36.2H120.8V32.4H128.8V42.6C127.9 43 126.8 43.4 125.5 43.7Z" fill="#929497"/>
        <path d="M145.5 43.7V35.6H138V43.7H133.3V24.4H138V31.7H145.5V24.4H150.2V43.7H145.5Z" fill="#929497"/>
        <path d="M163 28.4V43.7H158.3V28.4H152.9V24.4H168.5V28.4H163Z" fill="#929497"/>
        <path d="M181.7 29.4C181.3 28.9 180.8 28.5 180.1 28.2C179.5 27.9 178.8 27.7 178.2 27.7C177.9 27.7 177.6 27.7 177.3 27.8C177 27.9 176.7 28 176.4 28.1C176.2 28.2 175.9 28.5 175.8 28.7C175.7 28.9 175.5 29.3 175.5 29.6C175.5 29.9 175.6 30.2 175.7 30.4C175.8 30.6 176 30.8 176.3 31C176.6 31.2 176.9 31.3 177.2 31.5C177.5 31.7 178 31.8 178.4 31.9C179.1 32.1 179.7 32.4 180.5 32.6C181.3 32.8 181.9 33.2 182.4 33.6C183 34 183.5 34.6 183.8 35.2C184.2 35.9 184.4 36.7 184.4 37.6C184.4 38.7 184.2 39.7 183.8 40.5C183.4 41.3 182.8 42 182.2 42.5C181.5 43 180.7 43.4 179.8 43.7C178.9 44 178 44.1 177 44.1C175.6 44.1 174.3 43.9 173 43.4C171.7 42.9 170.6 42.2 169.8 41.3L172.9 38.2C173.4 38.8 174 39.3 174.8 39.7C175.6 40.1 176.3 40.3 177.1 40.3C177.4 40.3 177.8 40.3 178.1 40.2C178.4 40.1 178.7 40 179 39.9C179.3 39.8 179.4 39.5 179.6 39.2C179.8 38.9 179.8 38.6 179.8 38.2C179.8 37.8 179.7 37.5 179.5 37.3C179.3 37.1 179.1 36.8 178.7 36.6C178.3 36.4 177.9 36.2 177.5 36C177.1 35.8 176.4 35.6 175.8 35.4C175.2 35.2 174.6 35 174 34.7C173.4 34.4 172.9 34.1 172.4 33.7C171.9 33.3 171.6 32.8 171.3 32.2C171 31.6 170.9 30.8 170.9 30C170.9 28.9 171.1 28 171.5 27.2C171.9 26.4 172.5 25.8 173.2 25.3C173.9 24.8 174.7 24.4 175.6 24.2C176.5 24 177.4 23.9 178.3 23.9C179.4 23.9 180.5 24.1 181.6 24.5C182.7 24.9 183.7 25.5 184.6 26.3L181.7 29.4Z" fill="#929497"/>
        <path d="M226.8 75.3H0V52.7H230.5L226.8 75.3Z" fill="black"/>
        <path d="M12.4 60.8C12.2 60.5 11.8 60.3 11.5 60.1C11.2 59.9 10.7 59.9001 10.4 59.9001C10.2 59.9001 10 59.9 9.8 60C9.6 60.1 9.4 60.1001 9.2 60.2001C9 60.3001 8.8 60.4 8.7 60.6C8.6 60.8 8.5 61.0001 8.5 61.2001C8.5 61.6001 8.6 61.9 8.9 62.1C9.2 62.3 9.6 62.5 10 62.6C10.4 62.7 10.9 62.9 11.4 63C11.9 63.2 12.4 63.3 12.8 63.6C13.3 63.9 13.6 64.2 13.9 64.7C14.2 65.1 14.3 65.8 14.3 66.5C14.3 67.2 14.3 68 14 68.5C13.7 69 13.4 69.5001 12.9 69.8001C12.4 70.2001 11.9 70.4 11.3 70.6C10.7 70.8 10.1 70.9001 9.4 70.9001C8.6 70.9001 7.8 70.8 7.1 70.5C6.4 70.2 5.7 69.8001 5.1 69.3001L7.1 67.1C7.4 67.5 7.8 67.8 8.2 68C8.6 68.2 9.1 68.3001 9.6 68.3001C9.8 68.3001 10.1 68.3 10.3 68.2C10.5 68.1 10.7 68.1 10.9 68C11.1 67.9 11.2 67.8 11.4 67.6C11.6 67.4 11.6 67.2 11.6 67C11.6 66.6 11.5 66.3 11.2 66.1C10.9 65.9 10.5 65.7 10.1 65.5C9.7 65.3 9 65.1001 8.5 64.9001C8 64.7001 7.5 64.5001 7 64.3001C6.6 64.0001 6.2 63.7001 5.9 63.2001C5.6 62.8001 5.5 62.2 5.5 61.5C5.5 60.8 5.6 60.2001 5.9 59.7001C6.2 59.2001 6.5 58.7001 7 58.4001C7.5 58.1001 8 57.8 8.6 57.6C9.2 57.4 9.8 57.3 10.5 57.3C11.2 57.3 11.9 57.4 12.6 57.6C13.3 57.8 13.9 58.2 14.5 58.6L12.4 60.8Z" fill="white"/>
        <path d="M16.1 64.0999C16.1 63.0999 16.3 62.0999 16.6 61.2999C17 60.4999 17.4 59.6999 18.1 59.0999C18.7 58.4999 19.5 58.1 20.3 57.7C21.1 57.3 22.1 57.2 23.1 57.2C24.1 57.2 25.1 57.4 25.9 57.7C26.8 58 27.5 58.4999 28.1 59.0999C28.7 59.6999 29.2 60.3999 29.6 61.2999C30 62.0999 30.1 63.0999 30.1 64.0999C30.1 65.0999 29.9 66.1 29.6 66.9C29.2 67.7 28.8 68.4999 28.1 69.0999C27.4 69.6999 26.7 70.2 25.9 70.5C25 70.8 24.1 71 23.1 71C22.1 71 21.1 70.8 20.3 70.5C19.5 70.2 18.7 69.6999 18.1 69.0999C17.5 68.4999 17 67.8 16.6 66.9C16.2 66.1 16.1 65.1999 16.1 64.0999ZM19 64.0999C19 64.6999 19.1 65.3 19.3 65.8C19.5 66.3 19.8 66.6999 20.1 67.0999C20.5 67.4999 20.9 67.8 21.4 68C21.9 68.2 22.4 68.3 23.1 68.3C23.8 68.3 24.3 68.2 24.8 68C25.3 67.8 25.7 67.4999 26.1 67.0999C26.5 66.6999 26.7 66.3 26.9 65.8C27.1 65.3 27.2 64.6999 27.2 64.0999C27.2 63.4999 27 63 26.8 62.5C26.6 62 26.3 61.5 26 61.2C25.6 60.8 25.2 60.4999 24.7 60.2999C24.2 60.0999 23.7 60 23 60C22.3 60 21.8 60.0999 21.3 60.2999C20.8 60.4999 20.4 60.8 20 61.2C19.6 61.6 19.4 62 19.2 62.5C19 63 19 63.4999 19 64.0999Z" fill="white"/>
        <path d="M40.9 61C40.6 60.7 40.3 60.4 39.9 60.2C39.5 60 39 59.9 38.5 59.9C38 59.9 37.5 60 37 60.2C36.5 60.4 36.1 60.6999 35.8 61.0999C35.5 61.4999 35.2 61.9 35 62.4C34.8 62.9 34.7 63.4999 34.7 64.0999C34.7 64.6999 34.8 65.3 35 65.8C35.2 66.3 35.5 66.6999 35.8 67.0999C36.1 67.4999 36.5 67.8 37 68C37.5 68.2 37.9 68.3 38.4 68.3C39 68.3 39.5 68.2 40 67.9C40.5 67.7 40.8 67.3 41.1 66.9L43.5 68.6999C43 69.4999 42.3 70 41.4 70.4C40.5 70.8 39.7 71 38.8 71C37.8 71 36.8 70.8 36 70.5C35.2 70.2 34.4 69.6999 33.8 69.0999C33.2 68.4999 32.7 67.8 32.3 66.9C31.9 66.1 31.8 65.0999 31.8 64.0999C31.8 63.0999 32 62.0999 32.3 61.2999C32.6 60.4999 33.1 59.6999 33.8 59.0999C34.5 58.4999 35.2 58.1 36 57.7C36.8 57.3 37.8 57.2 38.8 57.2C39.2 57.2 39.6 57.1999 40 57.2999C40.4 57.3999 40.8 57.4999 41.2 57.5999C41.6 57.7999 42 57.9 42.3 58.2C42.6 58.5 43 58.6999 43.3 59.0999L40.9 61Z" fill="white"/>
        <path d="M45.2 57.5999H48.1V70.5999H45.2V57.5999Z" fill="white"/>
        <path d="M55.4 57.5999H57.8L63.5 70.5999H60.3L59.2 67.7999H54.2L53.1 70.5999H49.9L55.4 57.5999ZM56.5 61.3999L54.9 65.3999H58.1L56.5 61.3999Z" fill="white"/>
        <path d="M65.1 57.5999H68V67.9999H73.3V70.5999H65.1V57.5999Z" fill="white"/>
        <path d="M89.5 61C89.2 60.7 88.9 60.4 88.5 60.2C88.1 60 87.6 59.9 87.1 59.9C86.6 59.9 86.1 60 85.6 60.2C85.1 60.4 84.7 60.6999 84.4 61.0999C84.1 61.4999 83.8 61.9 83.6 62.4C83.4 62.9 83.3 63.4999 83.3 64.0999C83.3 64.6999 83.4 65.3 83.6 65.8C83.8 66.3 84 66.6999 84.4 67.0999C84.8 67.4999 85.1 67.8 85.6 68C86.1 68.2 86.5 68.3 87 68.3C87.6 68.3 88.1 68.2 88.6 67.9C89 67.7 89.4 67.3 89.7 66.9L92.1 68.6999C91.5 69.4999 90.9 70 90 70.4C89.1 70.8 88.3 71 87.4 71C86.4 71 85.5 70.8 84.6 70.5C83.7 70.2 83 69.6999 82.4 69.0999C81.8 68.4999 81.3 67.8 80.9 66.9C80.6 66.1 80.4 65.0999 80.4 64.0999C80.4 63.0999 80.6 62.0999 80.9 61.2999C81.2 60.4999 81.7 59.6999 82.4 59.0999C83.1 58.4999 83.8 58.1 84.6 57.7C85.4 57.3 86.4 57.2 87.4 57.2C87.8 57.2 88.2 57.1999 88.6 57.2999C89 57.3999 89.4 57.4999 89.8 57.5999C90.2 57.6999 90.6 57.9 90.9 58.2C91.2 58.5 91.6 58.6999 91.8 59.0999L89.5 61Z" fill="white"/>
        <path d="M98.4 57.5999H100.8L106.5 70.5999H103.3L102.2 67.7999H97.1L96 70.5999H92.8L98.4 57.5999ZM99.5 61.3999L97.9 65.3999H101.1L99.5 61.3999Z" fill="white"/>
        <path d="M108.2 57.5999H113C113.7 57.5999 114.3 57.6999 114.9 57.7999C115.5 57.8999 116 58.0999 116.5 58.3999C117 58.6999 117.3 59.0999 117.6 59.5999C117.9 60.0999 118 60.7999 118 61.4999C118 62.1999 117.9 62.8999 117.6 63.3999C117.4 63.8999 117 64.2999 116.6 64.5999C116.2 64.8999 115.7 65.0999 115.1 65.2999C114.5 65.4999 113.9 65.4999 113.2 65.4999H111V70.5999H108.1V57.5999H108.2ZM111 63.0999H112.9C113.2 63.0999 113.4 63.0999 113.6 62.9999C113.8 62.8999 114 62.8999 114.2 62.7999C114.4 62.6999 114.5 62.4999 114.7 62.2999C114.8 62.0999 114.9 61.7999 114.9 61.4999C114.9 61.1999 114.8 60.8999 114.7 60.6999C114.6 60.4999 114.4 60.2999 114.1 60.1999C113.8 60.0999 113.6 59.9999 113.3 59.9999C113 59.9999 112.7 59.9999 112.5 59.9999H111V63.0999Z" fill="white"/>
        <path d="M119.9 57.5999H122.8V70.5999H119.9V57.5999Z" fill="white"/>
        <path d="M128.2 60.2H124.5V57.7H134.8V60.2H131V70.6999H128.1L128.2 60.2Z" fill="white"/>
        <path d="M139.6 57.5999H142L147.6 70.5999H144.4L143.3 67.7999H138.2L137.1 70.5999H134L139.6 57.5999ZM140.7 61.3999L139.1 65.3999H142.3L140.7 61.3999Z" fill="white"/>
        <path d="M149.3 57.5999H152.2V67.9999H157.5V70.5999H149.3C149.3 70.5999 149.3 57.5999 149.3 57.5999Z" fill="white"/>
        <path d="M169.5 57.5999H171.9L177.5 70.5999H174.3L173.2 67.7999H168.1L167 70.5999H163.8L169.5 57.5999ZM170.6 61.3999L169 65.3999H172.2L170.6 61.3999Z" fill="white"/>
        <path d="M180.5 60.2H176.8V57.7H187.1V60.2H183.4V70.6999H180.5V60.2Z" fill="white"/>
        <path d="M188.9 57.5999H191.8V67.9999H197.1V70.5999H188.9C188.9 70.5999 188.9 57.5999 188.9 57.5999Z" fill="white"/>
        <path d="M203.8 57.5999H206.2L211.8 70.5999H208.6L207.5 67.7999H202.4L201.3 70.5999H198.1L203.8 57.5999ZM204.9 61.3999L203.3 65.3999H206.5L204.9 61.3999Z" fill="white"/>
        <path d="M220.2 60.8C220 60.5 219.6 60.3 219.3 60.1C219 59.9 218.5 59.9001 218.2 59.9001C218 59.9001 217.8 59.9 217.6 60C217.4 60.1 217.2 60.1001 217 60.2001C216.8 60.3001 216.6 60.4 216.5 60.6C216.4 60.8 216.3 61.0001 216.3 61.2001C216.3 61.6001 216.4 61.9 216.7 62.1C217 62.3 217.4 62.5 217.8 62.6C218.2 62.7 218.7 62.9 219.2 63C219.7 63.2 220.2 63.3 220.6 63.6C221 63.9 221.4 64.2 221.7 64.7C222 65.1 222.1 65.8 222.1 66.5C222.1 67.2 222 67.8001 221.7 68.4001C221.4 68.9001 221.1 69.4 220.6 69.7C220.1 70.1 219.6 70.3 219 70.5C218.4 70.7 217.8 70.8001 217.1 70.8001C216.3 70.8001 215.5 70.7001 214.7 70.4001C214 70.1001 213.3 69.7 212.7 69.2L214.7 67C215 67.4 215.4 67.7001 215.8 67.9001C216.2 68.1001 216.7 68.2 217.2 68.2C217.4 68.2 217.7 68.2 217.9 68.1C218.1 68 218.3 68.0001 218.5 67.9001C218.7 67.8001 218.8 67.7 219 67.5C219.1 67.3 219.2 67.1001 219.2 66.9001C219.2 66.5001 219.1 66.2 218.8 66C218.5 65.8 218.1 65.6001 217.7 65.4001C217.3 65.2001 216.8 65.1001 216.2 64.9001C215.6 64.7001 215.2 64.5001 214.7 64.3001C214.2 64.1001 213.9 63.7001 213.6 63.2001C213.3 62.8001 213.2 62.2 213.2 61.5C213.2 60.8 213.3 60.2001 213.6 59.7001C213.9 59.2001 214.2 58.7001 214.7 58.4001C215.2 58.1001 215.7 57.8 216.3 57.6C216.9 57.4 217.5 57.3 218.2 57.3C218.9 57.3 219.6 57.4 220.3 57.6C221 57.8 221.6 58.2 222.2 58.6L220.2 60.8Z" fill="white"/>
    </g>
    <defs>
        <clipPath id="clip0_2793_13124">
            <rect width="262.6" height="76.3" fill="white"/>
        </clipPath>
    </defs>
</svg>
